<svg xmlns="http://www.w3.org/2000/svg" width="146" height="18" fill="none"><g clip-path="url(#a)"><path fill="url(#b)" d="M5.51 8.2a.5.5 0 0 0-.86.1L.3 17.02a.52.52 0 0 0 .46.76h6.08a.5.5 0 0 0 .47-.3c1.3-2.68.51-6.82-1.79-9.28Z"></path><path fill="#000" d="M8.71.28a11.5 11.5 0 0 0-.67 11.36L11 17.48a.52.52 0 0 0 .46.3h6.08a.54.54 0 0 0 .45-.76L9.6.28a.5.5 0 0 0-.89 0ZM137.07 9.58l4.4 8.2h3.93V3.14h-3.12v9.45l-1.18-2.74-3.54-6.7h-4.93v14.63h3.12V6.62l1.32 2.96ZM112.8 3.14h-3.4v14.64h3.4V3.14ZM105.46 13.45c0-2.56-1.36-3.76-5.2-4.59-2.1-.47-2.62-.93-2.62-1.61 0-.85.76-1.2 2.15-1.2 1.7 0 3.37.5 4.95 1.22V3.92a11.17 11.17 0 0 0-4.84-1c-3.79 0-5.75 1.65-5.75 4.35 0 2.15 1 3.87 4.92 4.63 2.34.49 2.84.87 2.84 1.65 0 .78-.5 1.24-2.16 1.24-1.99-.03-3.94-.56-5.68-1.53v3.52c1.18.57 2.74 1.22 5.65 1.22 4.1 0 5.72-1.83 5.72-4.54M91.27 13.45c0-2.56-1.34-3.76-5.19-4.59-2.11-.47-2.63-.93-2.63-1.61 0-.85.76-1.2 2.15-1.2 1.7 0 3.37.5 4.95 1.22V3.92a11.17 11.17 0 0 0-4.84-1c-3.79 0-5.75 1.65-5.75 4.35 0 2.15 1 3.87 4.93 4.63 2.33.49 2.82.87 2.82 1.65 0 .78-.49 1.24-2.15 1.24-1.99-.03-3.94-.56-5.68-1.53v3.52c1.19.57 2.74 1.22 5.65 1.22 4.1 0 5.72-1.83 5.72-4.54M56.93 14.62V3.14H53.5v14.64h7l1.11-3.16h-4.68ZM46.88 17.78V6.31h4.05V3.14H39.66v3.17h3.79v11.47h3.43ZM34.69 3.14h-4.5l-5.1 14.64h3.9l.73-2.47c1.78.53 3.68.53 5.46 0l.72 2.47h3.9L34.7 3.14Zm-2.25 9.54c-.64 0-1.27-.1-1.88-.27l1.88-6.39 1.88 6.39c-.6.18-1.24.27-1.88.27ZM72.58 3.14H68.1l-5.1 14.64h3.89l.73-2.47c1.78.53 3.67.53 5.45 0l.73 2.47h3.9l-5.1-14.64Zm-2.24 9.54c-.64 0-1.27-.1-1.88-.27l1.88-6.39 1.88 6.39c-.61.18-1.25.27-1.88.27ZM125.08 3.14h-4.5l-5.1 14.64h3.9l.72-2.47c1.78.53 3.67.53 5.46 0l.72 2.47h3.9l-5.1-14.64Zm-2.25 9.54c-.63 0-1.27-.1-1.88-.27l1.88-6.39 1.88 6.39c-.6.18-1.24.27-1.88.27Z"></path></g><defs><linearGradient id="b" x1="7.91" x2="3.3" y1="9.55" y2="17.53" gradientUnits="userSpaceOnUse"><stop></stop><stop offset=".92"></stop></linearGradient><clipPath id="a"><path fill="#fff" d="M.23 0H145.4v18H.23z"></path></clipPath></defs></svg>