<svg xmlns="http://www.w3.org/2000/svg" width="81" height="18" fill="none"><g clip-path="url(#a)"><path fill="#000" fill-rule="evenodd" d="M65.35 5.4c.3.53.4 1.13.44 1.8l.04.9v6.3l.05.9a2.76 2.76 0 0 0 2.66 2.66l.9.04V8.1l.04-.9c.03-.67.13-1.28.44-1.81a3.6 3.6 0 0 1 6.23.01c.3.53.4 1.14.44 1.8l.04.9v6.3l.05.9a2.75 2.75 0 0 0 2.66 2.66l.9.04V7.2a7.2 7.2 0 0 0-12.6-4.76 7.2 7.2 0 0 0-9.44-1.2C57.5.46 55.93 0 55.03 0v18l.9-.04c1.51-.1 2.6-1.16 2.66-2.66l.05-.9V8.1l.04-.9c.04-.68.13-1.27.44-1.8a3.6 3.6 0 0 1 6.23 0ZM3.74 17.96l.9.04h13.5l-.05-.9a2.79 2.79 0 0 0-2.65-2.66l-.9-.04h-8.1l10.8-10.8-.05-.9A2.72 2.72 0 0 0 14.54.05l-.9-.05H.13l.04.9a2.8 2.8 0 0 0 2.65 2.66l.9.04h8.1L1.03 14.4l.05.9a2.75 2.75 0 0 0 2.66 2.66ZM51.5 2.64a9 9 0 1 1-12.72 12.72A9 9 0 0 1 51.5 2.64Zm-2.55 2.54a5.4 5.4 0 1 1-7.64 7.64 5.4 5.4 0 0 1 7.64-7.64ZM26.25 0a9 9 0 1 1-.02 0h.01Zm3.8 5.18a5.4 5.4 0 1 1-7.64 7.64 5.4 5.4 0 0 1 7.64-7.64Z" clip-rule="evenodd"></path></g><defs><clipPath id="a"><path fill="#fff" d="M.14 0h80.1v18H.14z"></path></clipPath></defs></svg>