<svg xmlns="http://www.w3.org/2000/svg" width="68" height="20" fill="none"><g fill="#000" clip-path="url(#a)"><path d="M54.25 16.76H13.64L16.88 20l37.37-3.24ZM60.76 14.7V8.22c0-1.22.85-2.23 2.07-2.23 1.21 0 2.06 1.01 2.06 2.23v6.48h2.51V8.22c0-2.67-1.82-4.82-4.49-4.82-1.21 0-2.15.69-2.15.69v-.45h-2.5v11.02h2.5v.04ZM52.46 3.36c-2.91 0-4.98 2.55-4.98 5.79 0 3.4 2.6 5.79 5.23 5.79 1.33 0 3-.45 4.41-2.47l-2.23-1.3c-1.7 2.51-4.57 1.26-4.9-1.3h7.21c.65-3.88-1.9-6.51-4.74-6.51Zm2.2 4.37h-4.5c.52-2.55 4-2.71 4.5 0Z"></path><path d="M46.68 12.06c-.25.17-.53.29-.86.29-.4 0-1.17-.33-1.17-1.34V6.28h2.15V3.64h-2.15V.9h-2.5v2.75H40.8v2.64h1.34V11a3.76 3.76 0 0 0 3.73 3.93c.68 0 1.66-.24 2.42-.69l-1.61-2.19ZM37.44 3.64v6.48c0 1.22-.85 2.23-2.06 2.23-1.22 0-2.07-1.01-2.07-2.23V3.64h-2.5v6.48c0 2.67 1.82 4.82 4.49 4.82 1.21 0 2.14-.69 2.14-.69v.4h2.51v-11h-2.5Z"></path><path d="m26.1 8.83 4.3-5.19h-3.48L23.88 7.5V0h-2.55v14.7h2.55v-4.54l3.73 4.54h3.48L26.1 8.83ZM17.4 3.64v.49a4.07 4.07 0 0 0-2.34-.77c-2.84 0-5.02 2.6-5.02 5.79 0 3.2 2.14 5.79 5.02 5.79.93 0 1.61-.28 2.34-.77v.49h2.51V3.64h-2.5Zm-2.39 8.67c-1.41 0-2.42-1.38-2.42-3.12 0-1.74 1-3.12 2.42-3.12s2.4 1.38 2.4 3.12c.03 1.74-.98 3.12-2.4 3.12Z"></path><path d="M2.83 14.7v-4.3h1.82l3.2 4.26h3.28L7.24 9.5A4.74 4.74 0 0 0 4.5.9H.19v13.77h2.64v.04Zm0-11.18h1.7c1.17 0 2.14.97 2.14 2.15 0 1.17-.97 2.14-2.14 2.14h-1.7V3.52Z"></path></g><defs><clipPath id="a"><path fill="#fff" d="M.2 0h67.17v20H.2z"></path></clipPath></defs></svg>