<svg xmlns="http://www.w3.org/2000/svg" width="91" height="18" fill="none"><g fill="#000" fill-rule="evenodd" clip-path="url(#a)" clip-rule="evenodd"><path d="M88.62 13.68c.05.63.55 1.42 1.42 1.42h.51c.2 0 .36-.16.36-.35V3.57a.36.36 0 0 0-.36-.34h-1.57a.36.36 0 0 0-.36.34v.9A5.05 5.05 0 0 0 84.6 2.8a6.28 6.28 0 0 0 0 12.56c1.52 0 3.18-.6 4-1.68Zm-4-.52c-2.21 0-4-1.83-4-4.08a4.04 4.04 0 0 1 4-4.09c2.2 0 3.98 1.83 3.98 4.09a4.04 4.04 0 0 1-3.99 4.08ZM76.34 14.06V8.28c0-3.26-2.06-5.46-5.33-5.46-1.57 0-2.85.9-3.3 1.69-.1-.61-.42-1.25-1.42-1.25h-.51c-.2 0-.36.16-.36.36v11.17c.01.2.17.34.36.34H67.42l.03-.01.04-.02.04-.02h.02a.37.37 0 0 0 .04-.04.35.35 0 0 0 .11-.24h.01V8.2a3.17 3.17 0 1 1 6.34 0v6.59c.01.2.17.34.36.34H76.05l.03-.01.04-.02c.01 0 .02 0 .03-.02h.03l.04-.04a.36.36 0 0 0 .11-.24h.01v-.74ZM59.94 13.68c.06.63.56 1.42 1.43 1.42h.5c.2 0 .36-.16.36-.35V3.57a.36.36 0 0 0-.36-.34H60.3a.36.36 0 0 0-.36.34v.9a5.05 5.05 0 0 0-4.01-1.67 6.28 6.28 0 0 0 0 12.56c1.52 0 3.19-.6 4.01-1.68Zm-4-.52c-2.2 0-4-1.83-4-4.08a4.04 4.04 0 0 1 4-4.09c2.2 0 3.99 1.83 3.99 4.09a4.04 4.04 0 0 1-4 4.08ZM40.34 12.08a5.8 5.8 0 0 0 3.3 1.08c1.05 0 2.14-.54 2.14-1.5 0-1.26-2.37-1.46-3.85-1.96-1.5-.5-2.77-1.55-2.77-3.24 0-2.6 2.3-3.66 4.46-3.66 1.36 0 2.77.45 3.68 1.09.31.24.12.51.12.51l-.87 1.25c-.1.14-.27.26-.51.1-.25-.15-1.11-.76-2.42-.76-1.32 0-2.1.61-2.1 1.36 0 .9 1.02 1.19 2.22 1.5 2.1.56 4.4 1.24 4.4 3.82 0 2.28-2.14 3.7-4.5 3.7-1.78 0-3.3-.52-4.58-1.46-.27-.26-.08-.5-.08-.5l.87-1.25c.17-.23.4-.15.5-.08ZM34.29 13.68c.05.63.55 1.42 1.42 1.42h.51c.2 0 .36-.16.36-.35V3.57a.36.36 0 0 0-.36-.34h-1.57a.36.36 0 0 0-.36.34v.9a5.05 5.05 0 0 0-4.01-1.67 6.28 6.28 0 0 0 0 12.56c1.52 0 3.18-.6 4-1.68Zm-4-.52c-2.21 0-4-1.83-4-4.08a4.04 4.04 0 0 1 4-4.09c2.2 0 3.99 1.83 3.99 4.09a4.04 4.04 0 0 1-4 4.08ZM15.2 9.5a4.22 4.22 0 1 0 0 8.45 4.22 4.22 0 0 0 0-8.45Zm-10.98 0a4.22 4.22 0 1 0 0 8.45 4.22 4.22 0 0 0 0-8.44Zm9.72-5.28a4.22 4.22 0 1 1-8.45 0 4.22 4.22 0 0 1 8.45 0Z"></path></g><defs><clipPath id="a"><path fill="#fff" d="M0 0h90.91v18H0z"></path></clipPath></defs></svg>