<svg xmlns="http://www.w3.org/2000/svg" width="137" height="18" fill="none"><g fill="#000" clip-path="url(#a)"><path d="M.86 15.66h7.6c3.57 0 5.65-1.5 5.65-4.42 0-1.82-1.1-2.92-2.66-3.44a3.55 3.55 0 0 0 2.2-3.45c0-2.27-1.42-3.83-4.87-3.83H.86v15.14Zm8.5-10.53c0 1.04-.64 1.56-2.07 1.56H5V3.57H7.3c1.43 0 2.08.52 2.08 1.56Zm.46 5.85c0 1.1-.65 1.56-2.14 1.56H5V9.36h2.73c1.43 0 2.08.52 2.08 1.62Zm15.86 4.68h4.35L24.77.46H19.3l-5.26 15.2h4.22l.78-2.47h5.91l.72 2.47Zm-3.7-11.83 1.88 6.18h-3.83l1.95-6.18Zm14.68 12.1c4.1 0 6.7-1.96 6.7-5.01 0-2.47-1.63-3.77-4.23-4.3l-3.31-.64c-1.3-.26-1.7-.65-1.7-1.37 0-.71.79-1.36 2.15-1.36 1.56 0 2.67.65 2.73 2.01h4.1C43.1 1.62 40.03.2 36.26.2c-3.64 0-6.3 1.82-6.3 4.75 0 2.47 1.62 3.77 4.22 4.29l3.32.65c1.3.26 1.69.65 1.69 1.36 0 .98-.91 1.5-2.4 1.5-1.7 0-2.93-.85-3-2.47h-4.1c.14 3.57 2.41 5.65 6.96 5.65Zm7.93-.27h4.16V.46h-4.16v15.2Zm9.55-7.6c0-2.54 1.37-4.42 3.64-4.42 1.88 0 3.05 1.1 3.31 2.4h4.36c-.4-3.96-3.77-5.91-7.6-5.91-5 0-8 3.12-8 7.86 0 4.75 2.93 7.87 8 7.87 3.9 0 7.27-1.89 7.66-5.92h-4.35c-.26 1.37-1.37 2.4-3.31 2.4-2.34.14-3.7-1.75-3.7-4.28ZM74.74 0h-3.38l-6.5 18h3.38l6.5-18ZM90.4 8.06c0-4.3-2.34-7.6-8.32-7.6h-6.36v15.2h6.36c5.98 0 8.32-3.31 8.32-7.6Zm-4.29 0c0 2.99-1.69 4.1-4.03 4.1h-2.14v-8.2h2.14c2.34 0 4.03 1.1 4.03 4.1Zm5.4 7.6h12.02v-3.44H95.6v-2.6h6.95V6.3H95.6V3.96h7.73V.46H91.51v15.2Zm26.31-9.88c0-3.83-2.47-5.26-6.23-5.26h-6.57v15.2h4.16v-4.67h2.47c3.7 0 6.17-1.43 6.17-5.27Zm-4.28 0c0 1.5-.72 2.08-2.41 2.08h-2.01V3.64h2.01c1.69 0 2.4.65 2.4 2.14Zm4.93-1.75h4.81v11.63h4.16V4.03h4.8V.45h-13.77v3.58ZM133.1 15.4a3.12 3.12 0 1 1 3.12-3.12 3.16 3.16 0 0 1-3.12 3.12Zm0-5.72a2.6 2.6 0 0 0-2.6 2.6 2.6 2.6 0 0 0 2.6 2.6 2.6 2.6 0 0 0 2.6-2.6 2.6 2.6 0 0 0-2.6-2.6Z"></path><path d="M133.42 11.18h-.91v1.04h.9c.33 0 .46-.2.46-.52 0-.33-.2-.52-.45-.52Zm-.07-.52c.78 0 1.17.32 1.17 1.04 0 .39-.2.71-.58.84l.78 1.17h-.78l-.72-1.04h-.78v1.04h-.71v-3.05h1.62Z"></path></g><defs><clipPath id="a"><path fill="#fff" d="M.86 0h135.36v18H.86z"></path></clipPath></defs></svg>