<?xml version="1.0" encoding="utf-8"?><!-- Uploaded to: SVG Repo, www.svgrepo.com, Generator: SVG Repo Mixer Tools -->
<svg width="800px" height="800px" viewBox="0 -0.5 25 25" fill="none" xmlns="http://www.w3.org/2000/svg">
<path fill-rule="evenodd" clip-rule="evenodd" d="M9.55903 18.1541C9.5688 18.508 9.36314 18.8325 9.03893 18.9747C8.71473 19.117 8.33666 19.0486 8.08284 18.8018C7.82903 18.555 7.75009 18.179 7.88322 17.8509C8.01635 17.5229 8.335 17.3082 8.68903 17.3081C8.9166 17.3049 9.13611 17.3922 9.29927 17.5509C9.46243 17.7095 9.55587 17.9265 9.55903 18.1541Z" stroke="#000000" stroke-width="1.5" stroke-linecap="round" stroke-linejoin="round"/>
<path fill-rule="evenodd" clip-rule="evenodd" d="M14.779 18.1541C14.7888 18.508 14.5831 18.8325 14.2589 18.9747C13.9347 19.117 13.5566 19.0486 13.3028 18.8018C13.049 18.555 12.9701 18.179 13.1032 17.8509C13.2363 17.5229 13.555 17.3082 13.909 17.3081C14.1366 17.3049 14.3561 17.3922 14.5192 17.5509C14.6824 17.7095 14.7758 17.9265 14.779 18.1541Z" stroke="#000000" stroke-width="1.5" stroke-linecap="round" stroke-linejoin="round"/>
<path d="M15.98 11.35C16.3942 11.35 16.73 11.0143 16.73 10.6C16.73 10.1858 16.3942 9.85004 15.98 9.85004V11.35ZM10.264 9.85004C9.84979 9.85004 9.514 10.1858 9.514 10.6C9.514 11.0143 9.84979 11.35 10.264 11.35V9.85004ZM14.074 13.217C14.4882 13.217 14.824 12.8813 14.824 12.467C14.824 12.0528 14.4882 11.717 14.074 11.717V13.217ZM10.264 11.717C9.84979 11.717 9.514 12.0528 9.514 12.467C9.514 12.8813 9.84979 13.217 10.264 13.217V11.717ZM7.405 7.67804V6.92804C6.99079 6.92804 6.655 7.26383 6.655 7.67804H7.405ZM19.487 8.50004L20.2306 8.40257C20.2291 8.39072 20.2272 8.37891 20.2251 8.36715L19.487 8.50004ZM19.412 9.10004L18.7152 8.82252C18.7108 8.8336 18.7067 8.84479 18.7028 8.85607L19.412 9.10004ZM18.8 10.879L19.4934 11.165C19.4991 11.1511 19.5043 11.1372 19.5092 11.123L18.8 10.879ZM17.678 13.6L18.3449 13.9432C18.3545 13.9245 18.3634 13.9054 18.3714 13.886L17.678 13.6ZM9.725 15.573V14.823L9.71443 14.8231L9.725 15.573ZM7.405 13.318H6.65492L6.65508 13.3288L7.405 13.318ZM6.655 7.67804C6.655 8.09226 6.99079 8.42804 7.405 8.42804C7.81921 8.42804 8.155 8.09226 8.155 7.67804H6.655ZM7.405 5.56404H8.15507L8.15493 5.55361L7.405 5.56404ZM6.826 5.00004V5.7501L6.83525 5.74999L6.826 5.00004ZM5.5 4.25004C5.08579 4.25004 4.75 4.58583 4.75 5.00004C4.75 5.41426 5.08579 5.75004 5.5 5.75004V4.25004ZM15.98 9.85004H10.264V11.35H15.98V9.85004ZM14.074 11.717H10.264V13.217H14.074V11.717ZM7.405 8.42804H17.192V6.92804H7.405V8.42804ZM17.192 8.42804C17.8465 8.42804 18.2496 8.40858 18.5519 8.47554C18.6796 8.50382 18.7147 8.53488 18.7169 8.53686C18.7173 8.5372 18.7191 8.53843 18.7233 8.54639C18.7281 8.55572 18.7396 8.58131 18.7489 8.63294L20.2251 8.36715C20.1592 8.00111 19.9998 7.67672 19.7275 7.42842C19.4658 7.18983 19.1561 7.07302 18.8763 7.01105C18.3639 6.89751 17.7025 6.92804 17.192 6.92804V8.42804ZM18.7434 8.59751C18.7533 8.67369 18.7437 8.75115 18.7152 8.82252L20.1088 9.37757C20.2319 9.0683 20.2739 8.73264 20.2306 8.40257L18.7434 8.59751ZM18.7028 8.85607L18.0908 10.6351L19.5092 11.123L20.1212 9.34402L18.7028 8.85607ZM18.1066 10.5931L16.9846 13.3141L18.3714 13.886L19.4934 11.165L18.1066 10.5931ZM17.0111 13.2569C16.7907 13.6852 16.6285 13.997 16.4851 14.2364C16.3414 14.4764 16.2435 14.597 16.1686 14.6649C16.0762 14.7485 15.962 14.823 15.358 14.823V16.323C16.035 16.323 16.6458 16.2565 17.1757 15.7765C17.4119 15.5625 17.5994 15.2955 17.7721 15.007C17.9451 14.718 18.1303 14.3603 18.3449 13.9432L17.0111 13.2569ZM15.358 14.823H9.725V16.323H15.358V14.823ZM9.71443 14.8231C8.86524 14.8351 8.16709 14.1565 8.15492 13.3073L6.65508 13.3288C6.67911 15.0062 8.05817 16.3466 9.73557 16.323L9.71443 14.8231ZM8.155 13.318V7.67804H6.655V13.318H8.155ZM8.155 7.67804V5.56404H6.655V7.67804H8.155ZM8.15493 5.55361C8.14478 4.82438 7.546 4.24111 6.81675 4.2501L6.83525 5.74999C6.73706 5.7512 6.65644 5.67266 6.65507 5.57448L8.15493 5.55361ZM6.826 4.25004H5.5V5.75004H6.826V4.25004Z" fill="#000000"/>
</svg>